<svg xmlns="http://www.w3.org/2000/svg" viewBox="0 0 420 170">
  <defs>
    <linearGradient id="bodyGrad" x1="0" y1="0" x2="0" y2="1"><stop offset="0%" stop-color="#4caf50"/><stop offset="100%" stop-color="#2e7d32"/></linearGradient>
    <linearGradient id="windowGrad" x1="0" y1="0" x2="0" y2="1"><stop offset="0%" stop-color="#b3e5fc"/><stop offset="100%" stop-color="#81d4fa"/></linearGradient>
  </defs>
  <g transform="translate(420,0) scale(-1,1)"><ellipse cx="210" cy="148" rx="170" ry="8" fill="#e0e0e0"/>
  <!-- Bed (LEFT = rear) -->
  <path d="M40 120 L40 62 L50 58 L175 56 L175 120" fill="url(#bodyGrad)" stroke="#1b5e20" stroke-width="1.5"/>
  <!-- Bed floor line -->
  <line x1="50" y1="72" x2="175" y2="70" stroke="#1b5e20" stroke-width="1" opacity="0.4"/>
  <!-- Cab (RIGHT = front) -->
  <path d="M175 120 L175 56 L200 40 Q210 34 225 32 L310 30 Q330 30 345 42 L365 58 Q372 62 374 72 L376 120" fill="url(#bodyGrad)" stroke="#1b5e20" stroke-width="1.5"/>
  <!-- Windows: windshield on RIGHT rakes back -->
  <path d="M183 55 L205 38 L308 32 L340 42 L360 56 Z" fill="url(#windowGrad)" stroke="#1b5e20" stroke-width="1"/>
  <!-- B-pillar -->
  <line x1="275" y1="36" x2="273" y2="55" stroke="#1b5e20" stroke-width="1.5"/>
  <!-- Door line -->
  <line x1="275" y1="55" x2="273" y2="118" stroke="#1b5e20" stroke-width="1" opacity="0.5"/>
  <!-- Headlight (RIGHT = front) -->
  <path d="M374 74 L382 76 L382 95 L376 97" fill="#fff9c4" stroke="#f9a825" stroke-width="1"/>
  <!-- Taillight (LEFT = rear) -->
  <path d="M40 65 L34 67 L34 85 L40 87" fill="#ef5350" stroke="#c62828" stroke-width="1"/>
  <!-- Wheel wells -->
  <path d="M80 120 Q80 94 110 94 Q140 94 140 120" fill="#333"/>
  <path d="M285 120 Q285 94 315 94 Q345 94 345 120" fill="#333"/>
  <!-- Wheels -->
  <circle cx="110" cy="122" r="23" fill="#444"/><circle cx="110" cy="122" r="17" fill="#666"/><circle cx="110" cy="122" r="5" fill="#999"/>
  <circle cx="315" cy="122" r="23" fill="#444"/><circle cx="315" cy="122" r="17" fill="#666"/><circle cx="315" cy="122" r="5" fill="#999"/>
  <g stroke="#888" stroke-width="1.5" opacity="0.6">
    <line x1="110" y1="105" x2="110" y2="114"/><line x1="93" y1="122" x2="102" y2="122"/><line x1="118" y1="122" x2="127" y2="122"/><line x1="110" y1="130" x2="110" y2="139"/>
    <line x1="315" y1="105" x2="315" y2="114"/><line x1="298" y1="122" x2="307" y2="122"/><line x1="323" y1="122" x2="332" y2="122"/><line x1="315" y1="130" x2="315" y2="139"/>
  </g>
  <line x1="30" y1="145" x2="385" y2="145" stroke="#ccc" stroke-width="1"/>
</g></svg>
